# xmcd
#
# Track frame offsets: 
#        150
#        6407
#        26182
#        44153
#        70461
#        94928
#        116395
#        141627
#        163727
#        182560
#
# Disc length: 2508 seconds
#
# Revision: 0
# Processed by: cddbd v1.5.2PL0 Copyright (c) Steve Scherf et al.
# Submitted via: ExactAudioCopy v1.0b3
#
DISCID=9709ca0a
DTITLE=Psycho Choke - Unraveling Chaos
DYEAR=2010
DGENRE=Groove Metal
TTITLE0=Intro
TTITLE1=Freedom In A Bottle Of Scotch
TTITLE2=Get Down
TTITLE3=Death By Words
TTITLE4=Streetwise
TTITLE5=Obey
TTITLE6=Swamp
TTITLE7=Fire In The Hole
TTITLE8=Dummy
TTITLE9=Outro
EXTD=
EXTT0=
EXTT1=
EXTT2=
EXTT3=
EXTT4=
EXTT5=
EXTT6=
EXTT7=
EXTT8=
EXTT9=
PLAYORDER=
